<svg xmlns="http://www.w3.org/2000/svg" width="80" height="80" viewBox="0 0 80 80" fill="none">
  <rect x="4" y="4" width="72" height="72" rx="16" fill="#8B5CF6" fill-opacity="0.12"/>
  <rect x="4" y="4" width="72" height="72" rx="16" stroke="#8B5CF6" stroke-width="2.5"/>
  <path d="M40 18C31.2 18 24 24.8 24 33V39H20C17.8 39 16 40.8 16 43V59C16 61.2 17.8 63 20 63H60C62.2 63 64 61.2 64 59V43C64 40.8 62.2 39 60 39H56V33C56 24.8 48.8 18 40 18Z" fill="#8B5CF6" fill-opacity="0.18" stroke="#8B5CF6" stroke-width="2.5" stroke-linejoin="round"/>
  <circle cx="33" cy="46" r="3" fill="#8B5CF6"/>
  <circle cx="47" cy="46" r="3" fill="#8B5CF6"/>
  <path d="M35 54C35 54 37.2 57 40 57C42.8 57 45 54 45 54" stroke="#8B5CF6" stroke-width="2.2" stroke-linecap="round"/>
  <path d="M40 8V14" stroke="#8B5CF6" stroke-width="2.5" stroke-linecap="round"/>
  <path d="M25 14L19 8" stroke="#8B5CF6" stroke-width="2" stroke-linecap="round"/>
  <path d="M55 14L61 8" stroke="#8B5CF6" stroke-width="2" stroke-linecap="round"/>
  <circle cx="62" cy="16" r="3" fill="#10B981" stroke="white" stroke-width="1"/>
  <circle cx="18" cy="16" r="3" fill="#3B82F6" stroke="white" stroke-width="1"/>
</svg>
