<svg xmlns="http://www.w3.org/2000/svg" width="16" height="16" viewBox="0 0 16 16" fill="none">
  <path d="M8 1.5C5.5 1.5 3.5 3.2 3.5 5.5V7H3C2.45 7 2 7.45 2 8V12C2 12.55 2.45 13 3 13H13C13.55 13 14 12.55 14 12V8C14 7.45 13.55 7 13 7H12.5V5.5C12.5 3.2 10.5 1.5 8 1.5Z" fill="#8B5CF6" fill-opacity="0.15" stroke="#8B5CF6" stroke-width="1.2" stroke-linejoin="round"/>
  <circle cx="6" cy="8" r="1.2" fill="#8B5CF6"/>
  <circle cx="10" cy="8" r="1.2" fill="#8B5CF6"/>
  <path d="M6.5 10.5C6.5 10.5 7.2 11.2 8 11.2C8.8 11.2 9.5 10.5 9.5 10.5" stroke="#8B5CF6" stroke-width="1" stroke-linecap="round"/>
  <path d="M8 0V1" stroke="#8B5CF6" stroke-width="1.2" stroke-linecap="round"/>
  <path d="M4.5 2L3.5 1" stroke="#8B5CF6" stroke-width="1" stroke-linecap="round"/>
  <path d="M11.5 2L12.5 1" stroke="#8B5CF6" stroke-width="1" stroke-linecap="round"/>
</svg>
